<?xml version="1.0" encoding="utf-8"?>
<!-- Generator: Adobe Illustrator 24.2.0, SVG Export Plug-In . SVG Version: 6.00 Build 0)  -->
<svg version="1.1" id="Layer_1" xmlns="http://www.w3.org/2000/svg" xmlns:xlink="http://www.w3.org/1999/xlink" x="0px" y="0px"
	 viewBox="0 0 90 46" style="enable-background:new 0 0 90 46;" xml:space="preserve">
<style type="text/css">
	.st0{fill:#FCB515;}
	.st1{fill:#C4161C;}
	.st2{fill:#52575B;}
</style>
<g>
	<path class="st0" d="M20.5,13.8v31.9C15,37.1,9.5,27.6,0.8,23.4C12.2,21.4,17.4,17.8,20.5,13.8"/>
	<path class="st1" d="M11.7,18.2C10.6,16.1,0,0,0,0s11.7,1.4,17.6,6.3C24.4,12.1,13.2,17.8,11.7,18.2"/>
	<path class="st2" d="M30.7,38V25.2h-4.3v-5.1h4.3v-6.3h6.5v6.3h6.7v5.1h-6.7v12.5c0,2.3,1.4,2.8,3.3,2.8c1.5,0,2.9-0.3,3.8-0.6v4.7
		c-1.5,0.4-3.5,0.9-5.9,0.9C32.3,45.5,30.7,42.5,30.7,38"/>
	<path class="st2" d="M45.7,32.6c0-8.6,5.3-13.1,13.1-13.1c3.5,0,6.9,0.9,8.9,1.7v8.3h-5.4v-4.8c-0.9-0.2-1.9-0.3-2.9-0.3
		c-4.7,0-7.1,3-7.1,8c0,4.9,2.2,8.1,7.3,8.1c2.9,0,5.7-1.1,7.8-2.2v5.1c-2.3,1.3-5.5,2.1-8.8,2.1C50.7,45.5,45.7,40.9,45.7,32.6"/>
	<path class="st2" d="M71.7,39.8h4.1V25.2H71v-5.1h4.7v-7.3c0-6.8,4.3-9.1,9.4-9.1c1.6,0,3.2,0.2,4.8,0.5V9c-1-0.2-2.2-0.3-3.1-0.3
		c-2.5,0-4.6,0.7-4.6,4.2v7.1h6.1v5.1h-6.1v14.6h5v5H71.7V39.8z"/>
</g>
</svg>
