<svg id="Layer_1" data-name="Layer 1" xmlns="http://www.w3.org/2000/svg" viewBox="0 0 248 252"><defs><style>.cls-1{fill:#fff;}</style></defs><title>AllIcons2</title><path class="cls-1" d="M79.15,229.75c93.46,0,144.56-77.44,144.56-144.56,0-2.22,0-4.43-.11-6.54A104,104,0,0,0,249,52.31a102.75,102.75,0,0,1-29.19,8,50.76,50.76,0,0,0,22.34-28.13,103.06,103.06,0,0,1-32.24,12.33A50.84,50.84,0,0,0,122,79.29a46.51,46.51,0,0,0,1.37,11.59A144.16,144.16,0,0,1,18.66,37.77a50.8,50.8,0,0,0,15.81,67.75,50,50,0,0,1-23-6.32v.63a50.86,50.86,0,0,0,40.78,49.84,50.66,50.66,0,0,1-13.38,1.79,48.65,48.65,0,0,1-9.59-.94,50.71,50.71,0,0,0,47.41,35.29,102.07,102.07,0,0,1-63.11,21.71,91.84,91.84,0,0,1-12.12-.74,141.57,141.57,0,0,0,77.66,23"/></svg>