<svg id="Layer_1" data-name="Layer 1" xmlns="http://www.w3.org/2000/svg" viewBox="0 0 248 252"><defs><style>.cls-1{fill:#fff;}</style></defs><title>AllIcons2</title><path class="cls-1" d="M124.52,24.25c33,0,36.88.12,49.9.72,12,.55,18.57,2.56,22.92,4.25a38.23,38.23,0,0,1,14.2,9.24,38.23,38.23,0,0,1,9.24,14.2c1.69,4.35,3.7,10.88,4.25,22.92.6,13,.72,16.93.72,49.9s-.12,36.88-.72,49.9c-.55,12-2.56,18.57-4.25,22.93a40.94,40.94,0,0,1-23.44,23.43c-4.35,1.69-10.88,3.7-22.92,4.25-13,.6-16.93.72-49.9.72s-36.88-.12-49.9-.72c-12-.55-18.57-2.56-22.93-4.25A38.27,38.27,0,0,1,37.5,212.5a38.27,38.27,0,0,1-9.24-14.19c-1.69-4.36-3.7-10.89-4.25-22.93-.6-13-.72-16.93-.72-49.9s.12-36.88.72-49.9c.55-12,2.56-18.57,4.25-22.92a38.23,38.23,0,0,1,9.24-14.2,38.27,38.27,0,0,1,14.19-9.24c4.36-1.69,10.89-3.7,22.93-4.25,13-.6,16.93-.72,49.9-.72m0-22.25C91,2,86.78,2.14,73.61,2.74s-22.12,2.69-30,5.74A60.72,60.72,0,0,0,21.76,22.72,60.72,60.72,0,0,0,7.52,44.6c-3,7.85-5.14,16.83-5.74,30S1,91.94,1,125.48s.14,37.74.74,50.91,2.69,22.12,5.74,30a60.72,60.72,0,0,0,14.24,21.88,60.72,60.72,0,0,0,21.88,14.24c7.85,3.05,16.83,5.14,30,5.74S91,249,124.52,249s37.74-.14,50.91-.74,22.12-2.69,30-5.74a63.08,63.08,0,0,0,36.12-36.12c3-7.85,5.14-16.83,5.74-30S248,159,248,125.48s-.14-37.74-.74-50.91-2.69-22.12-5.74-30a60.72,60.72,0,0,0-14.24-21.88A60.72,60.72,0,0,0,205.4,8.48c-7.85-3.05-16.83-5.14-30-5.74S158.06,2,124.52,2Z"/><path class="cls-1" d="M124.52,62.07a63.41,63.41,0,1,0,63.41,63.41A63.41,63.41,0,0,0,124.52,62.07Zm0,104.57a41.16,41.16,0,1,1,41.16-41.16A41.16,41.16,0,0,1,124.52,166.64Z"/><circle class="cls-1" cx="190.43" cy="59.57" r="14.82"/></svg>