<svg id="Layer_1" data-name="Layer 1" xmlns="http://www.w3.org/2000/svg" viewBox="0 0 248 252"><defs><style>.cls-1{fill:#fff;}</style></defs><title>AllIcons2</title><path class="cls-1" d="M242.37,70.22A31,31,0,0,0,220.55,48.4c-19.38-5.3-96.88-5.3-96.88-5.3s-77.49,0-96.86,5.1A31.65,31.65,0,0,0,5,70.22C-.11,89.6-.11,129.77-.11,129.77s0,40.38,5.09,59.55a31,31,0,0,0,21.83,21.82c19.57,5.31,96.87,5.31,96.87,5.31s77.49,0,96.87-5.1a31,31,0,0,0,21.82-21.82c5.1-19.38,5.1-59.55,5.1-59.55S247.67,89.6,242.37,70.22ZM99,166.89V92.66l64.44,37.11Z"/></svg>