<svg id="Layer_1" data-name="Layer 1" xmlns="http://www.w3.org/2000/svg" xmlns:xlink="http://www.w3.org/1999/xlink" viewBox="0 0 651 440"><defs><style>.cls-1{fill:none;}.cls-2{clip-path:url(#clip-path);}.cls-3{clip-path:url(#clip-path-2);}.cls-4{fill:url(#linear-gradient);}.cls-5,.cls-6,.cls-8{fill:#46494c;}.cls-5{fill-rule:evenodd;}.cls-6{font-size:36.24px;}.cls-6,.cls-7,.cls-8{font-family:Soleto-XBoldItalic, Soleto;font-weight:700;font-style:italic;}.cls-7{font-size:62.84px;fill:#fff;}.cls-8{font-size:51.35px;}</style><clipPath id="clip-path"><rect class="cls-1" y="-0.5" width="651" height="440"/></clipPath><clipPath id="clip-path-2"><rect class="cls-1" x="-72.65" y="-8.57" width="804.94" height="455.23"/></clipPath><linearGradient id="linear-gradient" x1="330.69" y1="919.18" x2="330.69" y2="-297.3" gradientUnits="userSpaceOnUse"><stop offset="0.64" stop-color="#ffca05"/><stop offset="0.66" stop-color="#fec608"/><stop offset="0.74" stop-color="#fcb711"/><stop offset="0.84" stop-color="#faaf16"/><stop offset="1" stop-color="#faac18"/></linearGradient></defs><title>Artboard 1</title><g class="cls-2"><g class="cls-3"><rect class="cls-4" x="-83" y="-19.38" width="827.37" height="479.93"/></g><path class="cls-5" d="M152.7,202.67l56.23-9.91V108a2.33,2.33,0,0,1,2-2.3L327.5,85.18V31.84a2.32,2.32,0,0,1,3.16-2.17l118.2,34.27a2.34,2.34,0,0,1,1.85,2.28V124l56.39,16.35a2.32,2.32,0,0,1,1.85,2.27v86.67a2.31,2.31,0,0,1-2,2.3l-56.23,9.92v84.72a2.34,2.34,0,0,1-2,2.31L332.14,349.09v53.34a2.32,2.32,0,0,1-3.16,2.16l-118.2-34.28a2.31,2.31,0,0,1-1.85-2.27V310.27l-56.39-16.35a2.33,2.33,0,0,1-1.85-2.27V205a2.31,2.31,0,0,1,2-2.3ZM189.36,338a2.32,2.32,0,0,1-3-3.56l11.76-9.87a2.32,2.32,0,0,1,3,3.56L189.36,338ZM461.49,109.68a2.32,2.32,0,1,1-3-3.56l11.77-9.87a2.32,2.32,0,0,1,3,3.56l-11.76,9.87Zm-291,202.1a2.32,2.32,0,1,1-2.32-4l1.51-.87a2.32,2.32,0,1,1,2.32,4l-1.51.87ZM489.93,127.36a2.31,2.31,0,1,1-2.3-4l1.51-.87a2.31,2.31,0,0,1,2.3,4l-1.51.87Zm-343,59.88a2.32,2.32,0,1,1,.8-4.57l3.7.65a2.32,2.32,0,1,1-.8,4.57l-3.7-.65Zm12.86,2.27a2.32,2.32,0,1,1,.8-4.57l13.29,2.34a2.32,2.32,0,1,1-.8,4.58l-13.29-2.35Zm-4.89-33.57a2.32,2.32,0,0,1,1.58-4.36l25.23,9.18a2.32,2.32,0,0,1-1.58,4.36l-25.23-9.18Zm34,12.36a2.32,2.32,0,0,1,1.57-4.36l10,3.63a2.32,2.32,0,1,1-1.58,4.36l-10-3.63Zm-20.69-41.81a2.32,2.32,0,1,1,2.32-4l5.88,3.39a2.32,2.32,0,1,1-2.33,4l-5.87-3.39Zm13.92,8a2.32,2.32,0,0,1,2.33-4L200.8,140a2.32,2.32,0,1,1-2.32,4l-16.37-9.45Zm4.28-34.72a2.32,2.32,0,0,1,3-3.56l11.77,9.87a2.32,2.32,0,1,1-3,3.56l-11.76-9.87Zm22.55-23.13a2.32,2.32,0,0,1,3.56-3l4.82,5.76a2.32,2.32,0,0,1-3.55,3l-4.83-5.76Zm10.8,12.87a2.32,2.32,0,1,1,3.56-3L228,92.12a2.32,2.32,0,1,1-3.56,3l-4.65-5.55Zm15.43-31.74a2.31,2.31,0,1,1,4-2.3l2,3.53a2.32,2.32,0,0,1-4,2.3l-2-3.53Zm6.68,11.59a2.32,2.32,0,1,1,4-2.32l11.66,20.19a2.32,2.32,0,1,1-4,2.32L241.85,69.4Zm22.42-25.6a2.31,2.31,0,0,1,4.35-1.58l9.09,25a2.32,2.32,0,1,1-4.36,1.58l-9.08-25Zm12.26,33.69a2.32,2.32,0,1,1,4.36-1.57l2.61,7.17a2.32,2.32,0,0,1-4.36,1.58l-2.61-7.18Zm18.83-42.44a2.32,2.32,0,0,1,4.57-.8l2.92,16.55a2.32,2.32,0,0,1-4.58.79l-2.91-16.54Zm4.53,25.7a2.32,2.32,0,1,1,4.57-.8l3.4,19.26a2.32,2.32,0,1,1-4.58.8l-3.39-19.26Zm-91,244.7V284.14L192.77,287c-7.24,1.28-7.8,11.51-.74,13.56l16.9,4.9ZM450.71,128.82v21.3l16.16-2.85c7.24-1.28,7.79-11.51.73-13.56l-16.89-4.89ZM327.5,391.88l-90-26.1-16,2.82,106,30.74v-7.46ZM276.62,372.3l50.88,14.76V349.9l-50.15,8.85c-7.24,1.27-7.79,11.51-.73,13.55ZM332.14,42.38l90,26.11,16-2.83-106-30.74v7.46ZM383,62,332.14,47.21V84.36l50.15-8.84C389.53,74.24,390.08,64,383,62ZM155.34,279.05l349-61.53V155.21l-349,61.54v62.3Zm349-56.82-349,61.53v5.12L448,237.27l56.31-9.93v-5.11Zm-349-10.2,349-61.53v-5.11l-349,61.53V212ZM446.06,324.28V242.33L317.9,264.92l-104.32,18.4v82l232.48-41ZM213.58,110v82l232.48-41V69L213.58,110Z"/><text class="cls-6" transform="matrix(0.99, -0.17, 0.21, 1.2, 232.79, 166.85)">F</text><text class="cls-6" transform="translate(254.25 163.15) rotate(-9.78) scale(1 1.22)">I</text><text class="cls-6" transform="translate(267.07 160.94) rotate(-9.78) scale(1 1.22)">N</text><text class="cls-6" transform="matrix(0.99, -0.17, 0.21, 1.2, 293, 156.47)">D</text><text class="cls-6" transform="matrix(0.99, -0.17, 0.21, 1.2, 318.61, 152.06)"> </text><text class="cls-6" transform="translate(329.02 150.27) rotate(-9.78) scale(1 1.22)">Y</text><text class="cls-6" transform="translate(351.64 146.37) rotate(-9.78) scale(1 1.22)">O</text><text class="cls-6" transform="translate(377.43 141.92) rotate(-9.78) scale(1 1.22)">U</text><text class="cls-6" transform="translate(403.77 137.38) rotate(-9.78) scale(1 1.22)">R</text><text class="cls-7" transform="translate(186.08 263.96) rotate(-9.96) scale(1 0.94)">P</text><text class="cls-7" transform="translate(226.18 256.92) rotate(-9.96) scale(1 0.94)">U</text><text class="cls-7" transform="translate(271.85 248.89) rotate(-9.96) scale(1 0.94)">R</text><text class="cls-7" transform="translate(313.7 241.54) rotate(-9.96) scale(1 0.94)">P</text><text class="cls-7" transform="translate(353.8 234.5) rotate(-9.96) scale(1 0.94)">O</text><text class="cls-7" transform="translate(399.06 226.55) rotate(-9.96) scale(1 0.94)">S</text><text class="cls-7" transform="translate(435.01 220.24) rotate(-9.96) scale(1 0.94)">E</text><text class="cls-8" transform="translate(237.96 341.09) rotate(-9.96) scale(1.09 1.11)">A</text><text class="cls-8" transform="translate(272.07 335.1) rotate(-9.96) scale(1.09 1.11)">T</text><text class="cls-8" transform="translate(307.64 328.85) rotate(-9.96) scale(1.09 1.11)"> </text><text class="cls-8" transform="translate(323.69 326.03) rotate(-9.96) scale(1.09 1.11)">T</text><text class="cls-8" transform="translate(357.58 320.08) rotate(-9.96) scale(1.09 1.11)">C</text><text class="cls-8" transform="matrix(1.07, -0.19, 0.19, 1.09, 390.05, 314.38)">F</text><path class="cls-5" d="M485.75,247a2.32,2.32,0,0,1,.79-4.58l13.3,2.34a2.32,2.32,0,0,1-.79,4.58L485.75,247Z"/><path class="cls-5" d="M508.2,250.94a2.32,2.32,0,1,1,.8-4.57l3.7.65a2.32,2.32,0,1,1-.8,4.57l-3.7-.65Z"/><path class="cls-5" d="M459.21,266.7a2.32,2.32,0,0,1,1.58-4.36l10,3.63a2.31,2.31,0,0,1-1.57,4.35l-10-3.62Z"/><path class="cls-5" d="M477.92,273.5a2.31,2.31,0,1,1,1.58-4.35l25.23,9.18a2.31,2.31,0,1,1-1.58,4.35l-25.23-9.18Z"/><path class="cls-5" d="M458.84,294.3a2.32,2.32,0,0,1,2.33-4l16.36,9.45a2.32,2.32,0,0,1-2.33,4l-16.36-9.45Z"/><path class="cls-5" d="M483.25,308.39a2.32,2.32,0,1,1,2.33-4l5.87,3.39a2.32,2.32,0,0,1-2.32,4l-5.88-3.39Z"/><path class="cls-5" d="M458.51,328.15a2.32,2.32,0,1,1,3-3.56l11.76,9.87a2.32,2.32,0,0,1-3,3.56l-11.77-9.87Z"/><path class="cls-5" d="M431.69,342.14a2.32,2.32,0,0,1,3.56-3l4.65,5.54a2.32,2.32,0,0,1-3.56,3l-4.65-5.55Z"/><path class="cls-5" d="M442.32,354.81a2.32,2.32,0,1,1,3.55-3l4.83,5.76a2.31,2.31,0,1,1-3.55,3l-4.83-5.75Z"/><path class="cls-5" d="M402.12,347a2.31,2.31,0,0,1,4-2.3l11.66,20.19a2.31,2.31,0,0,1-4,2.31L402.12,347Z"/><path class="cls-5" d="M418.42,375.24a2.32,2.32,0,0,1,4-2.33l2,3.53a2.32,2.32,0,0,1-4,2.33l-2-3.53Z"/><path class="cls-5" d="M376.14,351.17a2.32,2.32,0,1,1,4.36-1.58l2.61,7.18a2.32,2.32,0,0,1-4.36,1.58l-2.61-7.18Z"/><path class="cls-5" d="M381.93,367.08a2.32,2.32,0,0,1,4.36-1.58l9.08,25A2.31,2.31,0,1,1,391,392l-9.09-25Z"/><path class="cls-5" d="M351.78,355.06a2.32,2.32,0,0,1,4.58-.8l3.39,19.26a2.32,2.32,0,0,1-4.57.79l-3.4-19.25Z"/><path class="cls-5" d="M356.79,383.47a2.32,2.32,0,0,1,4.58-.8l2.91,16.54a2.32,2.32,0,1,1-4.57.8l-2.92-16.54Z"/></g></svg>